<svg xmlns="http://www.w3.org/2000/svg" viewBox="0 0 260 260"><defs><style>.cls-1{fill:#fff;}.cls-2{fill:#2f9c03;}</style></defs><title>Asset 1</title><g id="Layer_2" data-name="Layer 2"><g id="Layer_1-2" data-name="Layer 1"><rect class="cls-1" width="260" height="260"/><path class="cls-2" d="M222.33,163.36c18-51.34-8.78-107.62-59.82-125.72s-107,8.83-125,60.15S46.3,205.41,97.33,223.51,204.33,214.68,222.33,163.36ZM65.42,107.69a68.3,68.3,0,0,1,86.79-42.12l.46.17a68.73,68.73,0,1,1-87.25,42Z"/><polygon class="cls-2" points="42.08 158.06 63.98 195.44 29.93 205.63 16.8 183.21 42.08 158.06"/><polygon class="cls-2" points="44.52 94.22 37.45 137.05 4.88 122.8 9.13 97.1 44.52 94.22"/><polygon class="cls-2" points="87.08 46.9 54.38 75.14 38.51 43.11 58.13 26.16 87.08 46.9"/><polygon class="cls-2" points="149.62 38 107.03 38.44 115.21 4 140.76 3.74 149.62 38"/><polygon class="cls-2" points="203.47 72.28 170.21 44.71 198.74 23.39 218.69 39.94 203.47 72.28"/><polygon class="cls-2" points="222.84 133.11 214.94 90.43 250.38 92.6 255.12 118.2 222.84 133.11"/><polygon class="cls-2" points="198.88 192.26 220.04 154.45 245.81 179.07 233.13 201.76 198.88 192.26"/><polygon class="cls-2" points="142.84 222.05 183.16 206.8 187.19 242.37 163 251.52 142.84 222.05"/><polygon class="cls-2" points="80.5 209.14 121.47 223.71 101.72 253.85 77.13 245.11 80.5 209.14"/><polygon class="cls-2" points="28.88 176.75 120.36 120.23 133.38 141.66 41.9 198.17 28.88 176.75"/><path class="cls-2" d="M145,160.33a35.28,35.28,0,0,0,19.24-24.9c.9-4.46-1.65-6.25-5.54-3.94l-11.82,7a17.58,17.58,0,0,1-13.22,1.94h0a17.85,17.85,0,0,1-12.92-21.69l.09-.31h0a17.81,17.81,0,0,1,8.1-10.7L140.16,101c3.9-2.31,3.62-5.51-.73-6.77a34.8,34.8,0,0,0-28,3.83A35.64,35.64,0,0,0,100,147.19a36.2,36.2,0,0,0,2.09,3C111.39,162.26,131.31,167,145,160.33Z"/></g></g></svg>