<svg xmlns="http://www.w3.org/2000/svg" viewBox="0 0 145.99 117.24"><title>gears</title><g id="Layer_2" data-name="Layer 2"><g id="Layer_1-2" data-name="Layer 1"><polygon points="6.9 49.82 33.22 33.56 36.97 39.72 10.65 55.98 6.9 49.82" style="fill:#2f9c03"/><path d="M40.3,45.09a10.13,10.13,0,0,0,5.53-7.16c.26-1.28-.47-1.8-1.59-1.13l-3.4,2a5.06,5.06,0,0,1-3.8.56h0a5.14,5.14,0,0,1-3.7-6.33h0A5.17,5.17,0,0,1,35.67,30L38.92,28c1.12-.66,1-1.58-.21-1.94a10,10,0,0,0-8.06,1.1,10.25,10.25,0,0,0-2.68,15A10.72,10.72,0,0,0,40.3,45.09Z" style="fill:#2f9c03"/><polygon points="21.75 59.14 33.54 63.33 27.86 72 20.78 69.48 21.75 59.14" style="fill:#2f9c03"/><polygon points="10.7 44.44 17 55.2 7.21 58.13 3.43 51.68 10.7 44.44" style="fill:#2f9c03"/><polygon points="11.4 26.08 9.37 38.4 0 34.3 1.22 26.9 11.4 26.08" style="fill:#2f9c03"/><polygon points="23.65 12.46 14.24 20.58 9.67 11.37 15.32 6.5 23.65 12.46" style="fill:#2f9c03"/><polygon points="41.71 9.97 29.32 10.09 31.7 0.07 39.13 0 41.71 9.97" style="fill:#2f9c03"/><polygon points="57.13 19.76 47.56 11.83 55.77 5.7 61.51 10.46 57.13 19.76" style="fill:#2f9c03"/><polygon points="62.7 37.26 60.43 24.98 70.63 25.61 71.99 32.97 62.7 37.26" style="fill:#2f9c03"/><polygon points="55.81 54.28 61.9 43.4 69.31 50.49 65.66 57.02 55.81 54.28" style="fill:#2f9c03"/><polygon points="39.69 62.85 51.29 58.46 52.45 68.7 45.49 71.33 39.69 62.85" style="fill:#2f9c03"/><polygon points="21.75 59.14 33.54 63.33 27.86 72 20.78 69.48 21.75 59.14" style="fill:#2f9c03"/><path d="M62.48,45.94A28.45,28.45,0,0,0,45.3,9.73,28.11,28.11,0,0,0,9.38,27.06,28.45,28.45,0,0,0,26.57,63.27,28.09,28.09,0,0,0,62.48,45.94Zm-45.08-16A19.61,19.61,0,0,1,42.47,17.82a19.85,19.85,0,0,1,12,25.27A19.6,19.6,0,0,1,29.4,55.19,19.86,19.86,0,0,1,17.4,29.91Z" style="fill:#2f9c03"/><polygon points="39.9 103.06 56.9 91.82 59.49 95.81 42.49 107.04 39.9 103.06" style="fill:#2f9c03"/><path d="M61.79,99.28a6.67,6.67,0,0,0,3.5-4.83c.15-.85-.35-1.17-1.07-.71L62,95.13a3.36,3.36,0,0,1-2.49.45h0A3.38,3.38,0,0,1,57,91.49h0a3.37,3.37,0,0,1,1.47-2.08l2.1-1.33c.73-.46.65-1.07-.18-1.28a6.58,6.58,0,0,0-5.28.89,6.76,6.76,0,0,0-1.47,9.92A7.08,7.08,0,0,0,61.79,99.28Z" style="fill:#2f9c03"/><polygon points="49.86 108.9 57.71 111.42 54.14 117.24 49.43 115.73 49.86 108.9" style="fill:#2f9c03"/><polygon points="42.29 99.44 46.65 106.4 40.27 108.53 37.65 104.35 42.29 99.44" style="fill:#2f9c03"/><polygon points="42.38 87.34 41.29 95.49 35.04 92.98 35.69 88.08 42.38 87.34" style="fill:#2f9c03"/><polygon points="50.17 78.12 44.14 83.66 40.95 77.69 44.57 74.36 50.17 78.12" style="fill:#2f9c03"/><polygon points="62.01 76.12 53.86 76.45 55.22 69.81 60.12 69.61 62.01 76.12" style="fill:#2f9c03"/><polygon points="72.37 82.26 65.91 77.23 71.19 73.03 75.06 76.04 72.37 82.26" style="fill:#2f9c03"/><polygon points="76.39 93.67 74.64 85.63 81.37 85.84 82.42 90.66 76.39 93.67" style="fill:#2f9c03"/><polygon points="72.19 105.01 75.98 97.73 81.01 102.25 78.73 106.62 72.19 105.01" style="fill:#2f9c03"/><polygon points="61.75 110.98 69.3 107.86 70.27 114.57 65.74 116.45 61.75 110.98" style="fill:#2f9c03"/><polygon points="49.86 108.9 57.71 111.42 54.14 117.24 49.43 115.73 49.86 108.9" style="fill:#2f9c03"/><path d="M76.42,99.39a18.75,18.75,0,0,0-12-23.5A18.51,18.51,0,0,0,41.07,88a18.75,18.75,0,0,0,12,23.5A18.51,18.51,0,0,0,76.42,99.39Zm-30-9.65a12.92,12.92,0,0,1,16.26-8.47,13.08,13.08,0,0,1,8.41,16.4,12.92,12.92,0,0,1-16.26,8.47A13.07,13.07,0,0,1,46.41,89.74Z" style="fill:#2f9c03"/><polygon points="77.28 60.58 105.07 43.42 109.02 49.93 81.24 67.09 77.28 60.58" style="fill:#2f9c03"/><path d="M112.54,55.6A10.74,10.74,0,0,0,118.38,48c.27-1.36-.5-1.9-1.68-1.2L113.11,49a5.33,5.33,0,0,1-4,.59h0a5.42,5.42,0,0,1-3.89-6.67h0a5.35,5.35,0,0,1,2.46-3.25l3.42-2c1.19-.7,1.1-1.67-.22-2.05a10.56,10.56,0,0,0-8.51,1.16,10.83,10.83,0,0,0-2.83,15.81A11.34,11.34,0,0,0,112.54,55.6Z" style="fill:#2f9c03"/><polygon points="92.96 70.42 105.4 74.85 99.4 84 91.94 81.34 92.96 70.42" style="fill:#2f9c03"/><polygon points="81.29 54.91 87.94 66.26 77.61 69.36 73.62 62.55 81.29 54.91" style="fill:#2f9c03"/><polygon points="82.03 35.52 79.89 48.53 70 44.2 71.28 36.4 82.03 35.52" style="fill:#2f9c03"/><polygon points="94.96 21.15 85.03 29.73 80.21 20 86.17 14.86 94.96 21.15" style="fill:#2f9c03"/><polygon points="114.02 18.52 100.95 18.65 103.46 8.08 111.3 8 114.02 18.52" style="fill:#2f9c03"/><polygon points="130.31 28.86 120.2 20.49 128.87 14.01 134.93 19.04 130.31 28.86" style="fill:#2f9c03"/><polygon points="136.19 47.33 133.79 34.37 144.55 35.03 145.99 42.81 136.19 47.33" style="fill:#2f9c03"/><polygon points="128.91 65.3 135.34 53.81 143.17 61.29 139.31 68.18 128.91 65.3" style="fill:#2f9c03"/><polygon points="111.89 74.34 124.14 69.71 125.36 80.51 118.02 83.29 111.89 74.34" style="fill:#2f9c03"/><polygon points="92.96 70.42 105.4 74.85 99.4 84 91.94 81.34 92.96 70.42" style="fill:#2f9c03"/><path d="M136,56.49a30,30,0,0,0-18.14-38.22A29.67,29.67,0,0,0,79.9,36.56,30,30,0,0,0,98,74.78,29.65,29.65,0,0,0,136,56.49ZM88.37,39.57a20.69,20.69,0,0,1,26.46-12.76,21,21,0,0,1,12.66,26.67A20.7,20.7,0,0,1,101,66.25,21,21,0,0,1,88.37,39.57Z" style="fill:#2f9c03"/></g></g></svg>