<svg id="Layer_1" data-name="Layer 1" xmlns="http://www.w3.org/2000/svg" viewBox="0 0 657.74 440.92"><defs><style>.cls-1{fill:#039;}.cls-2,.cls-7{fill:#f1c400;}.cls-3{fill:#009745;}.cls-10,.cls-4,.cls-5,.cls-7,.cls-8{font-size:17px;}.cls-4{fill:#fff;font-family:Arial-BoldItalicMT, Arial;font-style:italic;}.cls-4,.cls-7{font-weight:700;}.cls-5{fill:#8c022a;}.cls-10,.cls-5{font-family:ProximaNova-Regular, Proxima Nova;}.cls-6{letter-spacing:-0.03em;}.cls-7{font-family:Arial-BoldMT, Arial;}.cls-8{fill:#37b903;font-family:ProximaNova-Medium, Proxima Nova;}.cls-9{letter-spacing:-0.03em;}.cls-11{fill:#2f9c03;}.cls-12{fill:#040f00;}.cls-13{font-size:20px;font-family:AcuminPro-Light, Acumin Pro;}.cls-14{letter-spacing:0em;}.cls-15{letter-spacing:-0.01em;}.cls-16{letter-spacing:0.01em;}.cls-17{letter-spacing:-0.01em;}.cls-18{letter-spacing:0.01em;}.cls-19{letter-spacing:0.01em;}.cls-20{letter-spacing:0.04em;}.cls-21{letter-spacing:0em;}.cls-22{letter-spacing:0.01em;}</style></defs><title>logo</title><rect class="cls-1" x="304.03" y="373.13" width="242.18" height="60.4"/><rect class="cls-2" x="77.44" y="178.48" width="271.81" height="128.32"/><rect class="cls-3" x="497.29" y="346.33" width="160.46" height="48.99"/><text class="cls-4" transform="translate(466.44 409.51)">GO!</text><text class="cls-5" transform="translate(64.94 412.74)">CO<tspan class="cls-6" x="24.5" y="0">L</tspan><tspan x="32.59" y="0">OR FOR ERRORS</tspan></text><text x="-58" y="-48.86"></text><path class="cls-1" d="M442.52,366.56h-6.64v5.37h-1.8v-12h1.8v5h6.64v-5h1.8v12h-1.8Z" transform="translate(-58 -48.86)"/><path class="cls-1" d="M447,359.92h8.07v1.58h-6.26V365h6.13v1.59h-6.13v3.74h6.26v1.59H447Z" transform="translate(-58 -48.86)"/><path class="cls-1" d="M464.9,369.44H459l-1,2.49h-2l4.77-12h2.25l4.77,12h-2Zm-5.37-1.6h4.85l-2.44-6.36Z" transform="translate(-58 -48.86)"/><path class="cls-1" d="M469.29,359.92h4.28a5.86,5.86,0,0,1,6.23,6c0,3.48-2.48,6-6.23,6h-4.28Zm4.28,10.42a4.42,4.42,0,0,0,0-8.84h-2.48v8.84Z" transform="translate(-58 -48.86)"/><path class="cls-1" d="M482,359.92H490v1.58h-6.26V365h6.14v1.59h-6.14v3.74H490v1.59H482Z" transform="translate(-58 -48.86)"/><path class="cls-1" d="M496.34,367.3h-2.25v4.63h-1.8v-12h5.06a3.57,3.57,0,0,1,3.85,3.69,3.35,3.35,0,0,1-3,3.51l3.08,4.81H499.2Zm.78-5.8h-3v4.21h3a2.11,2.11,0,1,0,0-4.21Z" transform="translate(-58 -48.86)"/><path d="M436.78,381.53h-3.92v-1.07h9.07v1.07H438v10.8h-1.22Z" transform="translate(-58 -48.86)"/><path d="M444.41,379.82v5.31a2.92,2.92,0,0,1,2.75-1.56c1.29,0,2.89.68,2.89,3.31v5.45h-1.14v-5.25c0-1.58-.7-2.47-2-2.47-1.62,0-2.46,1-2.46,3v4.73h-1.14V379.82Z" transform="translate(-58 -48.86)"/><path d="M452.73,379.82h1.14v1.74h-1.14Zm0,3.95h1.14v8.56h-1.14Z" transform="translate(-58 -48.86)"/><path d="M456.79,389.93a2.11,2.11,0,0,0,2.27,1.64c1.4,0,2-.63,2-1.5s-.4-1.33-2.19-1.76c-2.31-.56-2.84-1.26-2.84-2.41s.89-2.33,2.94-2.33,3,1.22,3.1,2.43h-1.12a1.85,1.85,0,0,0-2-1.48c-1.36,0-1.76.66-1.76,1.29s.39,1.08,2,1.47c2.5.6,3.06,1.42,3.06,2.7,0,1.53-1.23,2.55-3.18,2.55s-3.16-1.07-3.39-2.6Z" transform="translate(-58 -48.86)"/><path d="M468.59,379.82h1.14v1.74h-1.14Zm0,3.95h1.14v8.56h-1.14Z" transform="translate(-58 -48.86)"/><path d="M472.66,389.93a2.11,2.11,0,0,0,2.27,1.64c1.4,0,2-.63,2-1.5s-.4-1.33-2.18-1.76c-2.32-.56-2.85-1.26-2.85-2.41s.89-2.33,2.94-2.33,3,1.22,3.1,2.43h-1.12a1.85,1.85,0,0,0-2-1.48c-1.36,0-1.76.66-1.76,1.29s.39,1.08,2,1.47c2.5.6,3.06,1.42,3.06,2.7,0,1.53-1.23,2.55-3.18,2.55s-3.16-1.07-3.39-2.6Z" transform="translate(-58 -48.86)"/><path d="M490.56,390.59a11.39,11.39,0,0,0,.12,1.74h-1.09a5.15,5.15,0,0,1-.15-1.23,2.75,2.75,0,0,1-2.73,1.43,2.56,2.56,0,0,1-2.85-2.59c0-1.89,1.47-2.76,4-2.76h1.54v-.8c0-.81-.24-1.86-2-1.86-1.59,0-1.84.82-2,1.51h-1.12c.11-1,.76-2.46,3.17-2.46,2,0,3.13.84,3.13,2.75Zm-1.11-2.54h-1.54c-1.81,0-2.87.49-2.87,1.84a1.65,1.65,0,0,0,1.83,1.68c2.27,0,2.58-1.51,2.58-3.23Z" transform="translate(-58 -48.86)"/><path d="M498.76,391.16v4.56h-1.14v-9.85c0-.7,0-1.44,0-2.1h1.11c0,.31,0,.82,0,1.45a3.05,3.05,0,0,1,2.91-1.65c2,0,3.42,1.68,3.42,4.26,0,3.07-1.64,4.7-3.71,4.7A2.73,2.73,0,0,1,498.76,391.16Zm5.15-3.29c0-1.9-.9-3.28-2.49-3.28-1.93,0-2.72,1.22-2.72,3.43s.63,3.5,2.6,3.5C503,391.52,503.91,390.12,503.91,387.87Z" transform="translate(-58 -48.86)"/><path d="M513.23,390.59a11.39,11.39,0,0,0,.12,1.74h-1.09a5.15,5.15,0,0,1-.15-1.23,2.75,2.75,0,0,1-2.73,1.43,2.56,2.56,0,0,1-2.85-2.59c0-1.89,1.47-2.76,4-2.76h1.55v-.8c0-.81-.25-1.86-2-1.86-1.6,0-1.85.82-2,1.51h-1.12c.11-1,.76-2.46,3.17-2.46,2,0,3.13.84,3.13,2.75Zm-1.11-2.54h-1.54c-1.81,0-2.87.49-2.87,1.84a1.66,1.66,0,0,0,1.83,1.68c2.27,0,2.58-1.51,2.58-3.23Z" transform="translate(-58 -48.86)"/><path d="M515.93,386.1c0-1.33,0-2,0-2.33H517c0,.26,0,.86,0,1.84a3.13,3.13,0,0,1,2.93-2v1.17a2.92,2.92,0,0,0-2.93,3.27v4.32h-1.14Z" transform="translate(-58 -48.86)"/><path d="M527.46,390.59a11.39,11.39,0,0,0,.12,1.74h-1.09a5.15,5.15,0,0,1-.15-1.23,2.75,2.75,0,0,1-2.73,1.43,2.57,2.57,0,0,1-2.85-2.59c0-1.89,1.47-2.76,4-2.76h1.55v-.8c0-.81-.25-1.86-2-1.86-1.59,0-1.84.82-2,1.51h-1.11c.1-1,.75-2.46,3.16-2.46,2,0,3.13.84,3.13,2.75Zm-1.11-2.54h-1.54c-1.81,0-2.87.49-2.87,1.84a1.66,1.66,0,0,0,1.83,1.68c2.27,0,2.58-1.51,2.58-3.23Z" transform="translate(-58 -48.86)"/><path d="M536.93,391.66c0,2.74-1.18,4.23-3.8,4.23-2.39,0-3.26-1.34-3.44-2.58h1.16a2.17,2.17,0,0,0,2.33,1.6c2.09,0,2.65-1.34,2.65-3.42v-.8a2.68,2.68,0,0,1-2.78,1.62c-2,0-3.54-1.67-3.54-4.26,0-2.83,1.64-4.48,3.68-4.48,1.69,0,2.42.8,2.64,1.43,0-.45,0-1,.06-1.23H537c0,.4,0,1.66,0,2.48ZM530.71,388c0,1.93,1,3.29,2.54,3.29,2,0,2.61-1.34,2.61-3.42s-.61-3.3-2.56-3.3C531.51,384.58,530.71,386.1,530.71,388Z" transform="translate(-58 -48.86)"/><path d="M539.6,386.1c0-1.33,0-2,0-2.33h1.11c0,.26,0,.86,0,1.84a3.15,3.15,0,0,1,2.93-2v1.17a2.92,2.92,0,0,0-2.93,3.27v4.32H539.6Z" transform="translate(-58 -48.86)"/><path d="M551.14,390.59a11.39,11.39,0,0,0,.12,1.74h-1.09a5.15,5.15,0,0,1-.15-1.23,2.77,2.77,0,0,1-2.73,1.43,2.57,2.57,0,0,1-2.86-2.59c0-1.89,1.47-2.76,4-2.76H550v-.8c0-.81-.25-1.86-2-1.86-1.59,0-1.84.82-2,1.51h-1.12c.11-1,.75-2.46,3.16-2.46,2,0,3.14.84,3.14,2.75ZM550,388.05h-1.54c-1.81,0-2.87.49-2.87,1.84a1.66,1.66,0,0,0,1.83,1.68c2.27,0,2.58-1.51,2.58-3.23Z" transform="translate(-58 -48.86)"/><path d="M555,391.16v4.56h-1.14v-9.85c0-.7,0-1.44,0-2.1h1.11c0,.31,0,.82,0,1.45a3.05,3.05,0,0,1,2.91-1.65c2,0,3.42,1.68,3.42,4.26,0,3.07-1.64,4.7-3.72,4.7A2.72,2.72,0,0,1,555,391.16Zm5.14-3.29c0-1.9-.89-3.28-2.48-3.28-1.93,0-2.72,1.22-2.72,3.43s.63,3.5,2.6,3.5C559.19,391.52,560.11,390.12,560.11,387.87Z" transform="translate(-58 -48.86)"/><path d="M564.48,379.82v5.31a2.93,2.93,0,0,1,2.76-1.56c1.28,0,2.88.68,2.88,3.31v5.45H569v-5.25c0-1.58-.7-2.47-2-2.47-1.62,0-2.47,1-2.47,3v4.73h-1.14V379.82Z" transform="translate(-58 -48.86)"/><text x="-58" y="-48.86"></text><text class="cls-7" transform="translate(526.59 373.13)">Lorem ipsum</text><text x="-58" y="-48.86"></text><text class="cls-8" transform="translate(91.29 339.38)">CO<tspan class="cls-9" x="24.55" y="0">L</tspan><tspan x="32.72" y="0">OR FOR SUCCESS</tspan></text><text class="cls-10" transform="translate(0 379.1)">Can I use this for header</text><text x="-58" y="-48.86"></text><rect class="cls-11" x="476.81" y="157.56" width="26.58" height="6.17" transform="translate(934.63 -4.29) rotate(148.84)"/><path class="cls-11" d="M505.91,161a8.69,8.69,0,0,0,4.81-6.09c.23-1.09-.4-1.54-1.37-1l-2.94,1.7a4.37,4.37,0,0,1-3.28.46h0A4.38,4.38,0,0,1,500,150.7h0a4.38,4.38,0,0,1,2-2.62l2.8-1.63c1-.56.91-1.35-.17-1.66a8.7,8.7,0,0,0-9.33,13.68A9.28,9.28,0,0,0,505.91,161Z" transform="translate(-58 -48.86)"/><polygon class="cls-11" points="431.98 123.92 442.02 127.53 437.12 134.84 431.1 132.67 431.98 123.92"/><polygon class="cls-11" points="422.43 111.46 427.8 120.67 419.36 123.13 416.13 117.6 422.43 111.46"/><polygon class="cls-11" points="423.13 95.78 421.32 106.29 413.27 102.74 414.36 96.43 423.13 95.78"/><polygon class="cls-11" points="433.74 84.21 425.6 91.1 421.71 83.21 426.6 79.07 433.74 84.21"/><polygon class="cls-11" points="449.31 82.17 438.64 82.22 440.74 73.67 447.14 73.65 449.31 82.17"/><polygon class="cls-11" points="462.54 90.62 454.34 83.79 461.44 78.6 466.36 82.69 462.54 90.62"/><polygon class="cls-11" points="467.25 105.59 465.35 95.09 474.13 95.68 475.27 101.97 467.25 105.59"/><polygon class="cls-11" points="461.23 120.09 466.52 110.83 472.87 116.92 469.7 122.47 461.23 120.09"/><polygon class="cls-11" points="447.3 127.33 457.31 123.64 458.26 132.38 452.25 134.6 447.3 127.33"/><polygon class="cls-11" points="431.98 123.92 442.02 127.53 437.12 134.84 431.1 132.67 431.98 123.92"/><path class="cls-11" d="M525,161.86a24.24,24.24,0,1,0-31,14.61A24.23,24.23,0,0,0,525,161.86Zm-38.73-13.92a16.92,16.92,0,1,1,10.2,21.64A16.91,16.91,0,0,1,486.28,147.94Z" transform="translate(-58 -48.86)"/><text x="-58" y="-48.86"></text><path class="cls-12" d="M184.12,185.38c-2.2,7-7.21,12.47-17.45,12.47-9.24,0-14-5.65-14-14.39,0-10.89,6.2-24.07,19.64-24.07,11.49,0,14.45,8.16,14,13H178c-.11-3.3-1.33-6.37-6-6.37-7.44,0-10.53,10.42-10.53,17,0,5.79,2.45,8.29,6.37,8.29,3.6,0,6.15-2.06,7.82-5.91Z" transform="translate(-58 -48.86)"/><path class="cls-12" d="M220.23,188c-.75,3.58-1.59,7.88-1.67,9.11h-8.28c.09-1.16.39-3.21.66-4.69-1.85,2.56-4.52,5.41-11.64,5.41-7.34,0-10.29-5.07-10.29-9.44,0-10.39,9.31-13,17.22-13.82,3.34-.31,6.34-.31,8.51-.38l.37-2c.59-2.95.52-6.78-5.35-6.78-5.16,0-6.3,2.76-7.22,4.91h-8.66c1.35-5.8,5.47-11,16.59-11,8.83,0,15.09,3.77,13.08,13.2Zm-6.72-8a65.77,65.77,0,0,0-6.8.41c-5.63.76-8.86,2.5-8.86,6.57,0,2.36,1.55,4.26,5,4.26,7.17,0,9.36-5.74,10.51-10.66Z" transform="translate(-58 -48.86)"/><path class="cls-12" d="M233.75,171.07c.77-3.63,1.51-7.54,2.14-11h8.19a68,68,0,0,1-1.16,7.09c2.58-4.7,6.37-7.81,12.55-7.81L253.69,168c-6.85.24-11.79,4.49-13.52,12.64l-3.49,16.51H228.2Z" transform="translate(-58 -48.86)"/><path class="cls-11" d="M297.63,197.13h-7a37.26,37.26,0,0,1,.7-6.17c-3.32,4.64-7.64,6.84-14.6,6.84-11.62,0-17.49-8.47-17.49-20,0-14.91,8.76-31.17,27-31.17,11.48,0,18.29,6.63,18.4,15.74h-8.8c-.36-4.21-3.14-8.59-10.71-8.59-11.4,0-16.71,12.63-16.71,23.34,0,8,3.27,13.55,10.83,13.55,9.21,0,12.21-6.32,13.63-13.16l.07-.24H280.41l1.65-7.75H303Z" transform="translate(-58 -48.86)"/><polygon class="cls-11" points="257.95 134.34 278.8 120.83 282.13 125.39 261.28 138.91 257.95 134.34"/><path class="cls-11" d="M343.08,178.22a7.8,7.8,0,0,0,4.23-5.7c.15-1-.47-1.36-1.36-.81l-2.69,1.69a4.44,4.44,0,0,1-3.09.58h0a3.94,3.94,0,0,1-3.29-4.69h0a3.89,3.89,0,0,1,1.77-2.45l2.58-1.61c.88-.55.78-1.25-.26-1.48a8.69,8.69,0,0,0-6.55,1.17,7.54,7.54,0,0,0-1.55,11.57A9.22,9.22,0,0,0,343.08,178.22Z" transform="translate(-58 -48.86)"/><polygon class="cls-11" points="270.6 140.74 280.33 143.44 276.09 150.25 270.25 148.62 270.6 140.74"/><polygon class="cls-11" points="260.83 130.07 266.45 138.05 258.56 140.69 255.19 135.91 260.83 130.07"/><polygon class="cls-11" points="260.62 115.99 259.49 125.5 251.64 122.74 252.32 117.04 260.62 115.99"/><polygon class="cls-11" points="270.06 105.07 262.7 111.67 258.58 104.8 262.99 100.84 270.06 105.07"/><polygon class="cls-11" points="284.42 102.18 274.88 102.74 276.31 95.43 282.03 95.09 284.42 102.18"/><polygon class="cls-11" points="297.78 109.3 289.61 103.61 296.06 98.59 300.96 102 297.78 109.3"/><polygon class="cls-11" points="303.08 122.46 300.7 113.16 309.07 113.22 310.5 118.8 303.08 122.46"/><polygon class="cls-11" points="298.18 135.77 302.69 127.19 309.06 132.31 306.35 137.46 298.18 135.77"/><polygon class="cls-11" points="285.34 142.99 294.65 139.15 296.04 146.94 290.45 149.24 285.34 142.99"/><polygon class="cls-11" points="270.6 140.74 280.33 143.44 276.09 150.25 270.25 148.62 270.6 140.74"/><path class="cls-11" d="M361.27,178c3.6-11.53-3.39-23.62-15.61-27s-25.05,3.19-28.65,14.72,3.39,23.62,15.61,27S357.67,189.5,361.27,178Zm-37.58-10.44c2.52-8,11.47-12.64,20-10.27s13.41,10.81,10.9,18.85-11.47,12.65-20,10.28S321.18,175.58,323.69,167.53Z" transform="translate(-58 -48.86)"/><rect class="cls-11" x="513.5" y="103.09" width="26.5" height="6.16" transform="translate(974.46 -124.37) rotate(148.84)"/><path class="cls-11" d="M542.51,106.53a8.63,8.63,0,0,0,4.79-6.07c.23-1.09-.39-1.53-1.36-1l-2.93,1.7a4.4,4.4,0,0,1-3.27.46h0a4.37,4.37,0,0,1-3.13-5.41h0a4.39,4.39,0,0,1,2-2.61l2.8-1.62c1-.56.9-1.34-.17-1.66A8.68,8.68,0,0,0,532,104,9.23,9.23,0,0,0,542.51,106.53Z" transform="translate(-58 -48.86)"/><polygon class="cls-11" points="468.63 69.39 478.63 72.99 473.76 80.28 467.75 78.12 468.63 69.39"/><polygon class="cls-11" points="459.11 56.97 464.46 66.16 456.04 68.61 452.83 63.09 459.11 56.97"/><polygon class="cls-11" points="459.8 41.34 458 51.82 449.98 48.28 451.06 41.99 459.8 41.34"/><polygon class="cls-11" points="470.38 29.81 462.27 36.68 458.39 28.81 463.26 24.69 470.38 29.81"/><polygon class="cls-11" points="485.9 27.78 475.27 27.82 477.36 19.3 483.74 19.28 485.9 27.78"/><polygon class="cls-11" points="499.09 36.2 490.92 29.39 498 24.21 502.9 28.3 499.09 36.2"/><polygon class="cls-11" points="503.79 51.12 501.9 40.66 510.65 41.24 511.78 47.52 503.79 51.12"/><polygon class="cls-11" points="497.79 65.58 503.07 56.34 509.4 62.41 506.23 67.95 497.79 65.58"/><polygon class="cls-11" points="483.9 72.79 493.88 69.11 494.83 77.83 488.84 80.04 483.9 72.79"/><polygon class="cls-11" points="468.63 69.39 478.63 72.99 473.76 80.28 467.75 78.12 468.63 69.39"/><path class="cls-11" d="M561.55,107.37a24.16,24.16,0,1,0-30.91,14.57A24.17,24.17,0,0,0,561.55,107.37ZM522.94,93.49a16.87,16.87,0,1,1,10.17,21.58A16.87,16.87,0,0,1,522.94,93.49Z" transform="translate(-58 -48.86)"/><text class="cls-13" transform="translate(17.33 59.2)"><tspan class="cls-14">L</tspan><tspan x="11.14" y="0">o</tspan><tspan class="cls-15" x="21.9" y="0">r</tspan><tspan x="28.48" y="0">em i</tspan><tspan class="cls-16" x="65.1" y="0">p</tspan><tspan class="cls-17" x="76.46" y="0">s</tspan><tspan x="85.38" y="0">um dolor s</tspan><tspan class="cls-18" x="176.4" y="0">i</tspan><tspan x="181.02" y="0">t am</tspan><tspan class="cls-19" x="219.27" y="0">e</tspan><tspan class="cls-20" x="229.65" y="0">t</tspan><tspan x="236.51" y="0">, </tspan><tspan class="cls-14" x="0" y="24">c</tspan><tspan x="9.98" y="24">o</tspan><tspan class="cls-21" x="20.74" y="24">n</tspan><tspan x="31.78" y="24">s</tspan><tspan class="cls-22" x="40.92" y="24">e</tspan><tspan x="51.28" y="24">c</tspan></text></svg>