<svg xmlns="http://www.w3.org/2000/svg" viewBox="0 0 215.85 55.15"><defs><style>.cls-1{fill:#040f00;}.cls-2{fill:#2f9c03;}</style></defs><title>Asset 1</title><g id="Layer_2" data-name="Layer 2"><g id="Layer_1-2" data-name="Layer 1"><path class="cls-1" d="M33.91,49.53C31.7,56.54,26.69,62,16.46,62c-9.25,0-14-5.64-14-14.39,0-10.88,6.2-24.06,19.64-24.06,11.5,0,14.46,8.16,14,13H27.79c-.12-3.3-1.33-6.37-6.05-6.37-7.43,0-10.53,10.41-10.53,17,0,5.8,2.46,8.3,6.38,8.3,3.59,0,6.14-2.06,7.81-5.91Z" transform="translate(-2.43 -8.1)"/><path class="cls-1" d="M70,52.17c-.76,3.58-1.59,7.88-1.68,9.1H60.06c.09-1.16.4-3.2.67-4.68C58.88,59.14,56.21,62,49.09,62c-7.35,0-10.3-5.06-10.3-9.43,0-10.39,9.32-13,17.22-13.82,3.34-.31,6.35-.31,8.51-.38l.38-2c.59-3,.51-6.78-5.36-6.78-5.16,0-6.3,2.77-7.22,4.91H43.66c1.36-5.8,5.47-11,16.6-11,8.83,0,15.08,3.77,13.07,13.19Zm-6.73-8a65.41,65.41,0,0,0-6.79.41c-5.64.76-8.87,2.5-8.87,6.57,0,2.36,1.56,4.26,5,4.26,7.17,0,9.36-5.74,10.52-10.67Z" transform="translate(-2.43 -8.1)"/><path class="cls-1" d="M83.53,35.22c.77-3.63,1.52-7.55,2.14-11h8.19a65.71,65.71,0,0,1-1.16,7.09c2.59-4.71,6.37-7.81,12.55-7.81l-1.77,8.59c-6.86.24-11.8,4.48-13.52,12.64l-3.5,16.5H78Z" transform="translate(-2.43 -8.1)"/><path class="cls-2" d="M147.42,61.27h-7a38.25,38.25,0,0,1,.7-6.16c-3.32,4.64-7.64,6.84-14.6,6.84-11.62,0-17.48-8.48-17.48-20,0-14.91,8.75-31.17,27-31.17,11.48,0,18.3,6.64,18.41,15.75h-8.81c-.36-4.21-3.14-8.6-10.7-8.6-11.4,0-16.71,12.64-16.71,23.35,0,8,3.26,13.55,10.83,13.55,9.2,0,12.2-6.32,13.63-13.17l.07-.23H130.19l1.66-7.76h20.93Z" transform="translate(-2.43 -8.1)"/><polygon class="cls-2" points="163.3 39.25 184.15 25.73 187.48 30.3 166.63 43.81 163.3 39.25"/><path class="cls-2" d="M192.87,42.37a7.84,7.84,0,0,0,4.22-5.71c.16-1-.46-1.35-1.35-.8L193,37.54a4.39,4.39,0,0,1-3.09.59h0a4,4,0,0,1-3.29-4.7h0A4,4,0,0,1,188.44,31l2.57-1.6c.89-.56.78-1.26-.26-1.48a8.62,8.62,0,0,0-6.54,1.17,7.54,7.54,0,0,0-1.56,11.57A9.24,9.24,0,0,0,192.87,42.37Z" transform="translate(-2.43 -8.1)"/><polygon class="cls-2" points="175.95 45.64 185.69 48.35 181.44 55.15 175.6 53.53 175.95 45.64"/><polygon class="cls-2" points="166.18 34.98 171.8 42.95 163.91 45.6 160.54 40.81 166.18 34.98"/><polygon class="cls-2" points="165.97 20.89 164.84 30.41 156.99 27.65 157.67 21.94 165.97 20.89"/><polygon class="cls-2" points="175.41 9.97 168.06 16.58 163.93 9.71 168.34 5.75 175.41 9.97"/><polygon class="cls-2" points="189.77 7.08 180.23 7.65 181.66 0.34 187.38 0 189.77 7.08"/><polygon class="cls-2" points="203.13 14.2 194.96 8.52 201.41 3.49 206.31 6.9 203.13 14.2"/><polygon class="cls-2" points="208.43 27.37 206.05 18.06 214.42 18.13 215.85 23.71 208.43 27.37"/><polygon class="cls-2" points="203.53 40.67 208.04 32.1 214.41 37.22 211.7 42.37 203.53 40.67"/><polygon class="cls-2" points="190.69 47.89 200 44.06 201.39 51.84 195.81 54.14 190.69 47.89"/><polygon class="cls-2" points="175.95 45.64 185.69 48.35 181.44 55.15 175.6 53.53 175.95 45.64"/><path class="cls-2" d="M211.06,42.12c3.6-11.53-3.39-23.62-15.62-27s-25.05,3.2-28.65,14.73,3.4,23.62,15.62,27S207.46,53.64,211.06,42.12ZM173.48,31.68c2.51-8,11.46-12.65,20-10.28s13.41,10.82,10.89,18.86-11.46,12.65-20,10.28S171,39.73,173.48,31.68Z" transform="translate(-2.43 -8.1)"/></g></g></svg>