<svg xmlns="http://www.w3.org/2000/svg" viewBox="0 0 36 36"><title>gear</title><g id="Layer_2" data-name="Layer 2"><g id="Layer_1-2" data-name="Layer 1"><polygon points="3.45 24.91 16.61 16.78 18.48 19.86 5.32 27.99 3.45 24.91" style="fill:#2f9c03"/><path d="M20.15,22.55A5.09,5.09,0,0,0,22.92,19c.13-.65-.24-.9-.8-.57l-1.7,1a2.53,2.53,0,0,1-1.9.28h0a2.58,2.58,0,0,1-1.85-3.17h0A2.57,2.57,0,0,1,17.84,15l1.62-1c.56-.33.52-.79-.1-1a5,5,0,0,0-4,.55A5.12,5.12,0,0,0,14,21.09,5.39,5.39,0,0,0,20.15,22.55Z" style="fill:#2f9c03"/><polygon points="10.88 29.57 16.77 31.66 13.93 36 10.39 34.74 10.88 29.57" style="fill:#2f9c03"/><polygon points="5.35 22.22 8.5 27.6 3.6 29.06 1.71 25.84 5.35 22.22" style="fill:#2f9c03"/><polygon points="5.7 13.04 4.68 19.2 0 17.15 0.61 13.45 5.7 13.04" style="fill:#2f9c03"/><polygon points="11.82 6.23 7.12 10.29 4.84 5.68 7.66 3.25 11.82 6.23" style="fill:#2f9c03"/><polygon points="20.85 4.98 14.66 5.05 15.85 0.04 19.57 0 20.85 4.98" style="fill:#2f9c03"/><polygon points="28.57 9.88 23.78 5.92 27.89 2.85 30.76 5.23 28.57 9.88" style="fill:#2f9c03"/><polygon points="31.35 18.63 30.21 12.49 35.31 12.8 35.99 16.49 31.35 18.63" style="fill:#2f9c03"/><polygon points="27.91 27.14 30.95 21.7 34.66 25.24 32.83 28.51 27.91 27.14" style="fill:#2f9c03"/><polygon points="19.84 31.43 25.64 29.23 26.22 34.35 22.75 35.66 19.84 31.43" style="fill:#2f9c03"/><polygon points="10.88 29.57 16.77 31.66 13.93 36 10.39 34.74 10.88 29.57" style="fill:#2f9c03"/><path d="M31.24,23a14.21,14.21,0,0,0-8.59-18.1,14,14,0,0,0-18,8.66,14.22,14.22,0,0,0,8.59,18.1A14,14,0,0,0,31.24,23ZM8.7,15A9.81,9.81,0,0,1,21.23,8.91a9.93,9.93,0,0,1,6,12.64,9.79,9.79,0,0,1-12.53,6A9.92,9.92,0,0,1,8.7,15Z" style="fill:#2f9c03"/></g></g></svg>